<?xml version="1.0" ?><!DOCTYPE svg  PUBLIC '-//W3C//DTD SVG 1.1//EN'  'http://www.w3.org/Graphics/SVG/1.1/DTD/svg11.dtd'><svg enable-background="new 0 0 512 512" height="512px" id="Calque_1" version="1.1" viewBox="0 0 512 512" width="512px" xml:space="preserve" xmlns="http://www.w3.org/2000/svg" xmlns:xlink="http://www.w3.org/1999/xlink"><g><g><g id="XMLID_1_"><g><path d="M484.59,422.37v9.89c0,7.26-5.88,13.15-13.15,13.15H40.55c-7.26,0-13.14-5.88-13.14-13.15v-9.89      c0-7.26,5.88-13.15,13.14-13.15h14.24h20.52h124.12h0.01l18.09,18.09h76.94l18.09-18.09h124.13h20.52h14.23      C478.7,409.22,484.59,415.1,484.59,422.37z" fill="#526471"/><path d="M484.59,422.37v9.05c0-7.27-5.89-13.15-13.15-13.15H312.56l-18.09,18.09h-76.94      l-18.09-18.09H40.55c-7.26,0-13.14,5.89-13.14,13.15v-9.05c0-7.26,5.88-13.15,13.14-13.15h158.89l18.09,18.09h76.94l18.09-18.09      h158.88C478.7,409.22,484.59,415.1,484.59,422.37z" fill="#FFFFFF" opacity="0.2"/><path d="M332.5,78.59v44.61h-153V78.59c0-6.62,5.37-12,12-12h129C327.13,66.59,332.5,71.97,332.5,78.59z" fill="#FFC035"/><path d="M476.11,209.26v36.15c0,9.61-7.92,17.75-18.9,20.59c-2.71,0.72-5.61,1.1-8.62,1.1      c-9.06,0-17.11-3.46-22.11-8.79c-3.4-3.61-5.4-8.07-5.4-12.9v-36.15h5.4h30.73H476.11z" fill="#ECEFF0"/><path d="M379.84,123.2h47.58c16.45,0,29.78,13.33,29.79,29.78v0.01v32.61L407,123.46h-74.5v-0.26H379.84z" fill="#303C44"/><path d="M117.25,123.2h62.25v0.26H99.38L54.79,185.6v-32.61v-0.01c0.01-16.45,13.34-29.78,29.78-29.78H117.25z" fill="#303C44"/><polygon fill="#DD6475" points="457.21,185.6 476.11,209.26 457.21,209.26 426.48,209.26 421.08,209.26 366.05,209.26       311.03,209.26 256,209.26 200.97,209.26 145.95,209.26 90.92,209.26 85.52,209.26 35.89,209.26 54.79,185.6 99.38,123.46       179.5,123.46 332.5,123.46 407,123.46     "/><path d="M90.92,209.26v36.15c0,4.83-2.01,9.29-5.4,12.9c-4.05,4.3-10.07,7.39-17.02,8.41      c-1.65,0.25-3.35,0.38-5.09,0.38c-3.01,0-5.91-0.38-8.62-1.1c-10.97-2.84-18.9-10.98-18.9-20.59v-36.15H90.92z" fill="#C9314B"/><path d="M145.95,209.26v36.15c0,11.98-12.32,21.69-27.52,21.69c-15.19,0-27.51-9.71-27.51-21.69v-28.92v-7.23      H145.95z" fill="#ECEFF0"/><path d="M200.97,209.26v36.15c0,11.98-12.31,21.69-27.51,21.69c-15.19,0-27.51-9.71-27.51-21.69v-36.15H200.97z" fill="#C9314B"/><path d="M256,209.26v36.15c0,11.98-12.32,21.69-27.51,21.69c-15.2,0-27.52-9.71-27.52-21.69v-36.15H256z" fill="#ECEFF0"/><path d="M311.03,209.26v36.15c0,11.98-12.32,21.69-27.52,21.69c-15.19,0-27.51-9.71-27.51-21.69v-36.15H311.03z" fill="#C9314B"/><path d="M366.05,209.26v36.15c0,11.98-12.31,21.69-27.51,21.69c-15.19,0-27.51-9.71-27.51-21.69v-36.15H366.05z" fill="#ECEFF0"/><path d="M421.08,209.26v36.15c0,11.98-12.32,21.69-27.51,21.69c-15.2,0-27.52-9.71-27.52-21.69v-36.15H421.08z" fill="#C9314B"/><path d="M426.48,258.31v121.15H85.52V258.31c3.39-3.61,5.4-8.07,5.4-12.9c0,11.98,12.32,21.69,27.51,21.69      c15.2,0,27.52-9.71,27.52-21.69c0,11.98,12.32,21.69,27.51,21.69c15.2,0,27.51-9.71,27.51-21.69      c0,11.98,12.32,21.69,27.52,21.69c15.19,0,27.51-9.71,27.51-21.69c0,11.98,12.32,21.69,27.51,21.69      c15.2,0,27.52-9.71,27.52-21.69c0,8.94,6.86,16.61,16.65,19.94c3.33,1.12,7,1.75,10.86,1.75c15.2,0,27.51-9.71,27.51-21.69      c0,11.98,12.32,21.69,27.52,21.69c15.19,0,27.51-9.71,27.51-21.69C421.08,250.24,423.08,254.7,426.48,258.31z" fill="#007ECA"/><path d="M426.48,258.31v12.9c-3.4-3.61-5.4-8.07-5.4-12.9c0,11.98-12.32,21.69-27.51,21.69      c-15.2,0-27.52-9.71-27.52-21.69c0,11.98-12.31,21.69-27.51,21.69c-3.86,0-7.53-0.63-10.86-1.75      c-9.79-3.33-16.65-11-16.65-19.94c0,11.98-12.32,21.69-27.52,21.69c-15.19,0-27.51-9.71-27.51-21.69      c0,11.98-12.32,21.69-27.51,21.69c-15.2,0-27.52-9.71-27.52-21.69c0,11.98-12.31,21.69-27.51,21.69      c-15.19,0-27.51-9.71-27.51-21.69c0,11.98-12.32,21.69-27.52,21.69c-15.19,0-27.51-9.71-27.51-21.69c0,4.83-2.01,9.29-5.4,12.9      v-12.9c3.39-3.61,5.4-8.07,5.4-12.9c0,11.98,12.32,21.69,27.51,21.69c15.2,0,27.52-9.71,27.52-21.69      c0,11.98,12.32,21.69,27.51,21.69c15.2,0,27.51-9.71,27.51-21.69c0,11.98,12.32,21.69,27.52,21.69      c15.19,0,27.51-9.71,27.51-21.69c0,11.98,12.32,21.69,27.51,21.69c15.2,0,27.52-9.71,27.52-21.69c0,8.94,6.86,16.61,16.65,19.94      c3.33,1.12,7,1.75,10.86,1.75c15.2,0,27.51-9.71,27.51-21.69c0,11.98,12.32,21.69,27.52,21.69c15.19,0,27.51-9.71,27.51-21.69      C421.08,250.24,423.08,254.7,426.48,258.31z" fill="#303C44" opacity="0.2"/><path d="M457.21,266v143.22h-20.52H312.56l-18.09,18.09h-76.94l-18.09-18.09h-0.01H75.31H54.79V266      c2.71,0.72,5.61,1.1,8.62,1.1c1.74,0,3.44-0.13,5.09-0.38c6.95-1.02,12.97-4.11,17.02-8.41v121.15h340.96V258.31      c5,5.33,13.05,8.79,22.11,8.79C451.6,267.1,454.5,266.72,457.21,266z" fill="#303C44"/><polygon opacity="0.2" points="457.21,402.55 457.21,409.22 312.56,409.22 294.47,427.31 217.53,427.31 199.44,409.22       54.79,409.22 54.79,402.55 199.44,402.55 217.53,420.64 294.47,420.64 312.56,402.55     "/></g><g><path d="M54.79,409.22H40.55c-7.26,0-13.14,5.89-13.14,13.15v9.89c0,7.27,5.88,13.15,13.14,13.15h430.89      c7.27,0,13.15-5.89,13.15-13.15v-9.89c0-7.27-5.89-13.15-13.15-13.15h-14.23" fill="none"/><line fill="none" x1="217.53" x2="199.44" y1="427.31" y2="409.22"/><line fill="none" x1="312.56" x2="294.47" y1="409.22" y2="427.31"/><polyline fill="none" points="427.42,123.2 379.84,123.2 332.5,123.2 179.5,123.2 117.25,123.2 84.57,123.2     "/><polyline fill="none" points="199.43,409.22 75.31,409.22 54.79,409.22 54.79,266     "/><line fill="none" x1="54.79" x2="54.79" y1="185.6" y2="152.99"/><line fill="none" x1="457.21" x2="457.21" y1="185.6" y2="152.99"/><polyline fill="none" points="457.21,266 457.21,409.22 436.69,409.22 312.56,409.22     "/><path d="M54.79,152.99v-0.01c0.01-16.45,13.34-29.78,29.78-29.78" fill="none"/><path d="M427.42,123.2c16.45,0,29.78,13.33,29.79,29.78v0.01" fill="none"/><polyline fill="none" points="426.48,209.26 421.08,209.26 366.05,209.26 311.03,209.26 256,209.26 200.97,209.26       145.95,209.26 90.92,209.26 85.52,209.26     "/><polyline fill="none" points="426.48,258.31 426.48,379.46 85.52,379.46 85.52,258.31     "/><line fill="none" x1="217.53" x2="294.47" y1="427.31" y2="427.31"/><polyline fill="none" points="85.52,209.26 35.89,209.26 54.79,185.6 99.38,123.46 179.5,123.46 332.5,123.46 407,123.46       457.21,185.6 476.11,209.26 457.21,209.26 426.48,209.26     "/><line fill="none" x1="35.89" x2="35.89" y1="209.26" y2="245.41"/><path d="M35.89,245.41c0,9.61,7.93,17.75,18.9,20.59c2.71,0.72,5.61,1.1,8.62,1.1c1.74,0,3.44-0.13,5.09-0.38      c6.95-1.02,12.97-4.11,17.02-8.41c3.39-3.61,5.4-8.07,5.4-12.9" fill="none"/><polyline fill="none" points="90.92,245.41 90.92,216.49 90.92,209.26     "/><path d="M145.95,245.41c0,11.98-12.32,21.69-27.52,21.69c-15.19,0-27.51-9.71-27.51-21.69" fill="none"/><line fill="none" x1="145.95" x2="145.95" y1="209.26" y2="245.41"/><path d="M200.97,245.41c0,11.98-12.31,21.69-27.51,21.69c-15.19,0-27.51-9.71-27.51-21.69" fill="none"/><line fill="none" x1="200.97" x2="200.97" y1="209.26" y2="245.41"/><path d="M256,245.41c0,11.98-12.32,21.69-27.51,21.69c-15.2,0-27.52-9.71-27.52-21.69" fill="none"/><line fill="none" x1="256" x2="256" y1="209.26" y2="245.41"/><path d="M311.03,245.41c0,11.98-12.32,21.69-27.52,21.69c-15.19,0-27.51-9.71-27.51-21.69" fill="none"/><line fill="none" x1="311.03" x2="311.03" y1="209.26" y2="245.41"/><path d="M366.05,245.41c0,11.98-12.31,21.69-27.51,21.69c-15.19,0-27.51-9.71-27.51-21.69" fill="none"/><line fill="none" x1="366.05" x2="366.05" y1="209.26" y2="245.41"/><path d="M421.08,245.41c0,11.98-12.32,21.69-27.51,21.69c-15.2,0-27.52-9.71-27.52-21.69" fill="none"/><line fill="none" x1="421.08" x2="421.08" y1="209.26" y2="245.41"/><path d="M476.11,245.41c0,9.61-7.92,17.75-18.9,20.59c-2.71,0.72-5.61,1.1-8.62,1.1c-9.06,0-17.11-3.46-22.11-8.79      c-3.4-3.61-5.4-8.07-5.4-12.9" fill="none"/><line fill="none" x1="476.11" x2="476.11" y1="245.41" y2="209.26"/><path d="M332.5,123.46v-0.26V78.59c0-6.62-5.37-12-12-12h-129c-6.63,0-12,5.38-12,12v44.61v0.26" fill="none"/></g></g></g><rect height="7.46" opacity="0.2" width="340.96" x="85.52" y="372"/><linearGradient gradientUnits="userSpaceOnUse" id="SVGID_1_" x1="274.2803" x2="348.3914" y1="296.1803" y2="424.5445"><stop offset="0" style="stop-color:#000000"/><stop offset="1" style="stop-color:#FFFFFF;stop-opacity:0"/></linearGradient><path d="M426.48,258.31v121.15H146.25l181.43-114.11c3.33,1.12,7,1.75,10.86,1.75   c15.2,0,27.51-9.71,27.51-21.69c0,11.98,12.32,21.69,27.52,21.69c15.19,0,27.51-9.71,27.51-21.69   C421.08,250.24,423.08,254.7,426.48,258.31z" fill="url(#SVGID_1_)" opacity="0.2"/><linearGradient gradientUnits="userSpaceOnUse" id="SVGID_2_" x1="270.5295" x2="314.1674" y1="58.2014" y2="133.7844"><stop offset="0" style="stop-color:#000000"/><stop offset="1" style="stop-color:#FFFFFF;stop-opacity:0"/></linearGradient><path d="M332.5,78.59v44.61H256V66.59h64.5C327.13,66.59,332.5,71.97,332.5,78.59z" fill="url(#SVGID_2_)" opacity="0.2"/><linearGradient gradientUnits="userSpaceOnUse" id="SVGID_3_" x1="61.2035" x2="88.4948" y1="210.5339" y2="257.8038"><stop offset="0" style="stop-color:#000000"/><stop offset="1" style="stop-color:#FFFFFF;stop-opacity:0"/></linearGradient><path d="M90.92,209.26v36.15c0,4.83-2.01,9.29-5.4,12.9c-4.05,4.3-10.07,7.39-17.02,8.41   c-1.65,0.25-3.35,0.38-5.09,0.38v-57.84H90.92z" fill="url(#SVGID_3_)" opacity="0.2"/><linearGradient gradientUnits="userSpaceOnUse" id="SVGID_4_" x1="116.2285" x2="143.5198" y1="210.5339" y2="257.8038"><stop offset="0" style="stop-color:#000000"/><stop offset="1" style="stop-color:#FFFFFF;stop-opacity:0"/></linearGradient><path d="M145.945,209.26v36.15c0,4.83-2.01,9.29-5.4,12.9c-4.05,4.3-10.07,7.39-17.02,8.41   c-1.65,0.25-3.35,0.38-5.09,0.38v-57.84H145.945z" fill="url(#SVGID_4_)" opacity="0.2"/><linearGradient gradientUnits="userSpaceOnUse" id="SVGID_5_" x1="171.2536" x2="198.5448" y1="210.5339" y2="257.8038"><stop offset="0" style="stop-color:#000000"/><stop offset="1" style="stop-color:#FFFFFF;stop-opacity:0"/></linearGradient><path d="M200.97,209.26v36.15c0,4.83-2.01,9.29-5.4,12.9c-4.05,4.3-10.07,7.39-17.02,8.41   c-1.65,0.25-3.35,0.38-5.09,0.38v-57.84H200.97z" fill="url(#SVGID_5_)" opacity="0.2"/><linearGradient gradientUnits="userSpaceOnUse" id="SVGID_6_" x1="226.2786" x2="253.5698" y1="210.5339" y2="257.8038"><stop offset="0" style="stop-color:#000000"/><stop offset="1" style="stop-color:#FFFFFF;stop-opacity:0"/></linearGradient><path d="M255.995,209.26v36.15c0,4.83-2.01,9.29-5.4,12.9c-4.05,4.3-10.07,7.39-17.02,8.41   c-1.65,0.25-3.35,0.38-5.09,0.38v-57.84H255.995z" fill="url(#SVGID_6_)" opacity="0.2"/><linearGradient gradientUnits="userSpaceOnUse" id="SVGID_7_" x1="281.3036" x2="308.5949" y1="210.5339" y2="257.8038"><stop offset="0" style="stop-color:#000000"/><stop offset="1" style="stop-color:#FFFFFF;stop-opacity:0"/></linearGradient><path d="M311.02,209.26v36.15c0,4.83-2.01,9.29-5.4,12.9c-4.05,4.3-10.07,7.39-17.02,8.41   c-1.65,0.25-3.35,0.38-5.09,0.38v-57.84H311.02z" fill="url(#SVGID_7_)" opacity="0.2"/><linearGradient gradientUnits="userSpaceOnUse" id="SVGID_8_" x1="336.3286" x2="363.6199" y1="210.5339" y2="257.8038"><stop offset="0" style="stop-color:#000000"/><stop offset="1" style="stop-color:#FFFFFF;stop-opacity:0"/></linearGradient><path d="M366.045,209.26v36.15c0,4.83-2.01,9.29-5.4,12.9c-4.05,4.3-10.07,7.39-17.02,8.41   c-1.65,0.25-3.35,0.38-5.09,0.38v-57.84H366.045z" fill="url(#SVGID_8_)" opacity="0.2"/><linearGradient gradientUnits="userSpaceOnUse" id="SVGID_9_" x1="391.3537" x2="418.6449" y1="210.5339" y2="257.8038"><stop offset="0" style="stop-color:#000000"/><stop offset="1" style="stop-color:#FFFFFF;stop-opacity:0"/></linearGradient><path d="M421.07,209.26v36.15c0,4.83-2.01,9.29-5.4,12.9c-4.05,4.3-10.07,7.39-17.02,8.41   c-1.65,0.25-3.35,0.38-5.09,0.38v-57.84H421.07z" fill="url(#SVGID_9_)" opacity="0.2"/><linearGradient gradientUnits="userSpaceOnUse" id="SVGID_10_" x1="446.3787" x2="473.67" y1="210.5339" y2="257.8038"><stop offset="0" style="stop-color:#000000"/><stop offset="1" style="stop-color:#FFFFFF;stop-opacity:0"/></linearGradient><path d="M476.095,209.26v36.15c0,4.83-2.01,9.29-5.4,12.9c-4.05,4.3-10.07,7.39-17.02,8.41   c-1.65,0.25-3.35,0.38-5.09,0.38v-57.84H476.095z" fill="url(#SVGID_10_)" opacity="0.2"/></g></svg>