<?xml version="1.0" ?><!DOCTYPE svg  PUBLIC '-//W3C//DTD SVG 1.1//EN'  'http://www.w3.org/Graphics/SVG/1.1/DTD/svg11.dtd'><svg enable-background="new 0 0 512 512" height="512px" id="Calque_1" version="1.1" viewBox="0 0 512 512" width="512px" xml:space="preserve" xmlns="http://www.w3.org/2000/svg" xmlns:xlink="http://www.w3.org/1999/xlink"><g><g><g><g><g id="XMLID_1_"><g><path d="M486.59,131.18v48.04h-0.01c0,15.57-12.36,28.27-27.82,28.79c-0.33,0.02-0.66,0.03-1,0.03        c-1.82,0-3.61-0.17-5.34-0.5c-5.38-1.01-10.24-3.51-14.12-7.07c-5.75-5.26-9.36-12.84-9.36-21.25v-38.43v-9.61H486.59z" fill="#ECEFF0"/><path d="M428.94,140.79v38.43c0,15.92-12.91,28.82-28.82,28.82c-15.92,0-28.83-12.9-28.83-28.82v-48.04h57.65        V140.79z" fill="#FFC035"/><path d="M371.29,131.18v48.04c0,15.92-12.9,28.82-28.82,28.82c-15.92,0-28.82-12.9-28.82-28.82v-48.04H371.29z        " fill="#ECEFF0"/><path d="M486.59,131.18H25.41l4.68-7.35l23.94-37.62l6.01-9.45c3.53-3.11,8.15-5.01,13.2-5.01h365.52        c5.05,0,9.67,1.9,13.2,5.01l6.01,9.45l23.94,37.62L486.59,131.18z" fill="#FFC035"/><path d="M83.06,131.18v48.04c0,8.42-3.61,15.99-9.36,21.26c-5.13,4.7-11.96,7.56-19.46,7.56        c-0.34,0-0.67-0.01-1-0.03c-15.46-0.52-27.82-13.21-27.82-28.79h-0.01v-48.04H83.06z" fill="#FFC035"/><path d="M140.71,131.18v48.04c0,15.92-12.91,28.82-28.83,28.82c-15.91,0-28.82-12.9-28.82-28.82v-48.04H140.71        z" fill="#ECEFF0"/><path d="M198.35,131.18v48.04c0,15.92-12.9,28.82-28.82,28.82s-28.82-12.9-28.82-28.82v-48.04H198.35z" fill="#FFC035"/><path d="M256,131.18v48.04c0,15.92-12.9,28.82-28.82,28.82s-28.83-12.9-28.83-28.82v-48.04H256z" fill="#ECEFF0"/><path d="M313.65,131.18v48.04c0,15.92-12.91,28.82-28.83,28.82c-15.92,0-28.82-12.9-28.82-28.82v-48.04H313.65        z" fill="#FFC035"/><polygon fill="#526471" points="304.61,440.25 207.39,440.25 215.86,399.17 219.9,379.57 292.1,379.57 296.14,399.17               "/><path d="M458.76,208.01v151.56c0,11-9,20-20,20H292.1h-72.2h-6.13H73.24c-11,0-20-9-20-20V208.01        c0.33,0.02,0.66,0.03,1,0.03c7.5,0,14.33-2.86,19.46-7.56v138.31h364.6V200.47c3.88,3.56,8.74,6.06,14.12,7.07        c1.73,0.33,3.52,0.5,5.34,0.5C458.1,208.04,458.43,208.03,458.76,208.01z" fill="#303C44"/><path d="M458.76,352.9v6.67c0,11-9,20-20,20H73.24c-11,0-20-9-20-20v-6.67c0,11,9,20,20,20h365.52        C449.76,372.9,458.76,363.9,458.76,352.9z" opacity="0.2"/><path d="M438.3,200.47v138.32H73.7V200.48c5.75-5.27,9.36-12.84,9.36-21.26c0,15.92,12.91,28.82,28.82,28.82        c15.92,0,28.83-12.9,28.83-28.82c0,15.92,12.9,28.82,28.82,28.82c15.92,0,28.82-12.9,28.82-28.82        c0,15.92,12.91,28.82,28.83,28.82S256,195.14,256,179.22c0,15.92,12.9,28.82,28.82,28.82s28.83-12.9,28.83-28.82        c0,7.05,2.53,13.5,6.74,18.51c5.28,6.31,13.21,10.31,22.08,10.31c15.92,0,28.82-12.9,28.82-28.82        c0,15.92,12.91,28.82,28.83,28.82c15.91,0,28.82-12.9,28.82-28.82C428.94,187.63,432.55,195.21,438.3,200.47z" fill="#007ECA"/><path d="M438.3,200.47v10.63c-5.75-5.26-9.36-12.84-9.36-21.26c0,15.92-12.91,28.82-28.82,28.82        c-15.92,0-28.83-12.9-28.83-28.82c0,15.92-12.9,28.82-28.82,28.82c-15.92,0-28.82-12.9-28.82-28.82        c0,15.92-12.91,28.82-28.83,28.82S256,205.76,256,189.84c0,15.92-12.9,28.82-28.82,28.82s-28.83-12.9-28.83-28.82        c0,15.92-12.9,28.82-28.82,28.82c-15.92,0-28.82-12.9-28.82-28.82c0,15.92-12.91,28.82-28.83,28.82        c-15.91,0-28.82-12.9-28.82-28.82c0,8.42-3.61,16-9.36,21.26v-10.62c5.75-5.27,9.36-12.84,9.36-21.26        c0,15.92,12.91,28.82,28.82,28.82c15.92,0,28.83-12.9,28.83-28.82c0,15.92,12.9,28.82,28.82,28.82        c15.92,0,28.82-12.9,28.82-28.82c0,15.92,12.91,28.82,28.83,28.82S256,195.14,256,179.22c0,15.92,12.9,28.82,28.82,28.82        s28.83-12.9,28.83-28.82c0,15.92,12.9,28.82,28.82,28.82c15.92,0,28.82-12.9,28.82-28.82c0,15.92,12.91,28.82,28.83,28.82        c15.91,0,28.82-12.9,28.82-28.82C428.94,187.63,432.55,195.21,438.3,200.47z" fill="#303C44" opacity="0.2"/></g><g><path d="M219.9,379.57h-6.13H73.24c-11,0-20-9-20-20V208.01" fill="none"/><path d="M458.76,208.01v151.56c0,11-9,20-20,20H292.1" fill="none"/><polyline fill="none" points="438.3,200.47 438.3,338.79 73.7,338.79 73.7,200.48       "/><g><g><path d="M281.22,362.7h-50.44c-2.209,0-4-1.791-4-4s1.791-4,4-4h50.44c2.209,0,4,1.791,4,4          S283.429,362.7,281.22,362.7z" fill="#ECEFF0"/></g></g><polyline fill="none" points="207.39,440.25 219.9,379.57 292.1,379.57 304.61,440.25       "/><g><g><path d="M339.67,444.25H172.33c-2.209,0-4-1.791-4-4s1.791-4,4-4h167.34c2.209,0,4,1.791,4,4          S341.879,444.25,339.67,444.25z" fill="#303C44"/></g></g><path d="M486.59,131.18h-57.65h-57.65h-57.64H256h-57.65h-57.64H83.06H25.41l28.62-44.97l6.01-9.45        c3.53-3.11,8.15-5.01,13.2-5.01h365.52c5.05,0,9.67,1.9,13.2,5.01l6.01,9.45L486.59,131.18z" fill="none"/><line fill="none" x1="486.59" x2="486.59" y1="179.22" y2="131.18"/><path d="M428.94,179.22c0,8.41,3.61,15.99,9.36,21.25c3.88,3.56,8.74,6.06,14.12,7.07        c1.73,0.33,3.52,0.5,5.34,0.5c0.34,0,0.67-0.01,1-0.03c15.46-0.52,27.82-13.22,27.82-28.79" fill="none"/><polyline fill="none" points="428.94,131.18 428.94,140.79 428.94,179.22       "/><path d="M428.94,179.22c0,15.92-12.91,28.82-28.82,28.82c-15.92,0-28.83-12.9-28.83-28.82" fill="none"/><line fill="none" x1="371.29" x2="371.29" y1="179.22" y2="131.18"/><path d="M371.29,179.22c0,15.92-12.9,28.82-28.82,28.82c-15.92,0-28.82-12.9-28.82-28.82" fill="none"/><line fill="none" x1="313.65" x2="313.65" y1="179.22" y2="131.18"/><path d="M313.65,179.22c0,15.92-12.91,28.82-28.83,28.82c-15.92,0-28.82-12.9-28.82-28.82" fill="none"/><line fill="none" x1="256" x2="256" y1="179.22" y2="131.18"/><path d="M256,179.22c0,15.92-12.9,28.82-28.82,28.82s-28.83-12.9-28.83-28.82" fill="none"/><line fill="none" x1="198.35" x2="198.35" y1="179.22" y2="131.18"/><path d="M198.35,179.22c0,15.92-12.9,28.82-28.82,28.82s-28.82-12.9-28.82-28.82" fill="none"/><line fill="none" x1="140.71" x2="140.71" y1="179.22" y2="131.18"/><path d="M140.71,179.22c0,15.92-12.91,28.82-28.83,28.82c-15.91,0-28.82-12.9-28.82-28.82" fill="none"/><line fill="none" x1="83.06" x2="83.06" y1="179.22" y2="131.18"/><path d="M83.06,179.22c0,8.42-3.61,15.99-9.36,21.26c-5.13,4.7-11.96,7.56-19.46,7.56c-0.34,0-0.67-0.01-1-0.03        c-15.46-0.52-27.82-13.21-27.82-28.79" fill="none"/><line fill="none" x1="25.41" x2="25.41" y1="131.18" y2="179.22"/></g></g></g></g></g><polygon opacity="0.2" points="486.59,131.18 25.41,131.18 30.09,123.83 481.91,123.83  "/><linearGradient gradientUnits="userSpaceOnUse" id="SVGID_1_" x1="53.24" x2="83.06" y1="169.61" y2="169.61"><stop offset="0" style="stop-color:#000000"/><stop offset="1" style="stop-color:#FFFFFF;stop-opacity:0"/></linearGradient><path d="M83.06,131.18v48.04c0,8.42-3.61,15.99-9.36,21.26c-5.13,4.7-11.96,7.56-19.46,7.56   c-0.34,0-0.67-0.01-1-0.03v-76.83H83.06z" fill="url(#SVGID_1_)" opacity="0.2"/><linearGradient gradientUnits="userSpaceOnUse" id="SVGID_2_" x1="110.89" x2="140.71" y1="169.61" y2="169.61"><stop offset="0" style="stop-color:#000000"/><stop offset="1" style="stop-color:#FFFFFF;stop-opacity:0"/></linearGradient><path d="M140.71,131.18v48.04c0,8.42-3.61,15.99-9.36,21.26c-5.13,4.7-11.96,7.56-19.46,7.56   c-0.34,0-0.67-0.01-1-0.03v-76.83H140.71z" fill="url(#SVGID_2_)" opacity="0.2"/><linearGradient gradientUnits="userSpaceOnUse" id="SVGID_3_" x1="168.54" x2="198.36" y1="169.61" y2="169.61"><stop offset="0" style="stop-color:#000000"/><stop offset="1" style="stop-color:#FFFFFF;stop-opacity:0"/></linearGradient><path d="M198.36,131.18v48.04c0,8.42-3.61,15.99-9.36,21.26c-5.13,4.7-11.96,7.56-19.46,7.56   c-0.34,0-0.67-0.01-1-0.03v-76.83H198.36z" fill="url(#SVGID_3_)" opacity="0.2"/><linearGradient gradientUnits="userSpaceOnUse" id="SVGID_4_" x1="226.19" x2="256.01" y1="169.61" y2="169.61"><stop offset="0" style="stop-color:#000000"/><stop offset="1" style="stop-color:#FFFFFF;stop-opacity:0"/></linearGradient><path d="M256.01,131.18v48.04c0,8.42-3.61,15.99-9.36,21.26c-5.13,4.7-11.96,7.56-19.46,7.56   c-0.34,0-0.67-0.01-1-0.03v-76.83H256.01z" fill="url(#SVGID_4_)" opacity="0.2"/><linearGradient gradientUnits="userSpaceOnUse" id="SVGID_5_" x1="283.84" x2="313.66" y1="169.61" y2="169.61"><stop offset="0" style="stop-color:#000000"/><stop offset="1" style="stop-color:#FFFFFF;stop-opacity:0"/></linearGradient><path d="M313.66,131.18v48.04c0,8.42-3.61,15.99-9.36,21.26c-5.13,4.7-11.96,7.56-19.46,7.56   c-0.34,0-0.67-0.01-1-0.03v-76.83H313.66z" fill="url(#SVGID_5_)" opacity="0.2"/><linearGradient gradientUnits="userSpaceOnUse" id="SVGID_6_" x1="341.49" x2="371.31" y1="169.61" y2="169.61"><stop offset="0" style="stop-color:#000000"/><stop offset="1" style="stop-color:#FFFFFF;stop-opacity:0"/></linearGradient><path d="M371.31,131.18v48.04c0,8.42-3.61,15.99-9.36,21.26c-5.13,4.7-11.96,7.56-19.46,7.56   c-0.34,0-0.67-0.01-1-0.03v-76.83H371.31z" fill="url(#SVGID_6_)" opacity="0.2"/><linearGradient gradientUnits="userSpaceOnUse" id="SVGID_7_" x1="399.14" x2="428.96" y1="169.61" y2="169.61"><stop offset="0" style="stop-color:#000000"/><stop offset="1" style="stop-color:#FFFFFF;stop-opacity:0"/></linearGradient><path d="M428.96,131.18v48.04c0,8.42-3.61,15.99-9.36,21.26c-5.13,4.7-11.96,7.56-19.46,7.56   c-0.34,0-0.67-0.01-1-0.03v-76.83H428.96z" fill="url(#SVGID_7_)" opacity="0.2"/><linearGradient gradientUnits="userSpaceOnUse" id="SVGID_8_" x1="456.79" x2="486.61" y1="169.61" y2="169.61"><stop offset="0" style="stop-color:#000000"/><stop offset="1" style="stop-color:#FFFFFF;stop-opacity:0"/></linearGradient><path d="M486.61,131.18v48.04c0,8.42-3.61,15.99-9.36,21.26c-5.13,4.7-11.96,7.56-19.46,7.56   c-0.34,0-0.67-0.01-1-0.03v-76.83H486.61z" fill="url(#SVGID_8_)" opacity="0.2"/><linearGradient gradientUnits="userSpaceOnUse" id="SVGID_9_" x1="225.6075" x2="392.4375" y1="217.8225" y2="384.6525"><stop offset="0" style="stop-color:#000000"/><stop offset="1" style="stop-color:#FFFFFF;stop-opacity:0"/></linearGradient><path d="M438.3,200.47v138.32H104.64l215.75-141.06c5.28,6.31,13.21,10.31,22.08,10.31   c15.92,0,28.82-12.9,28.82-28.82c0,15.92,12.91,28.82,28.83,28.82c15.91,0,28.82-12.9,28.82-28.82   C428.94,187.63,432.55,195.21,438.3,200.47z" fill="url(#SVGID_9_)" opacity="0.1"/><polygon opacity="0.2" points="296.14,399.17 215.86,399.17 219.9,379.57 292.1,379.57  "/></g></svg>